<svg xmlns="http://www.w3.org/2000/svg" width="1200" height="420" viewBox="0 0 1200 420" font-family="'Helvetica Neue',Arial,sans-serif">
  <defs>
    <linearGradient id="bgGrad" x1="0" y1="0" x2="1" y2="1">
      <stop offset="0%" stop-color="#FFF8E7"/>
      <stop offset="50%" stop-color="#F5E9FF"/>
      <stop offset="100%" stop-color="#FFE4F0"/>
    </linearGradient>
    <linearGradient id="titleGrad" x1="0" y1="0" x2="1" y2="0">
      <stop offset="0%" stop-color="#7c6df0"/>
      <stop offset="100%" stop-color="#22d3ee"/>
    </linearGradient>
    <filter id="shadow" x="-10%" y="-10%" width="120%" height="130%">
      <feDropShadow dx="0" dy="4" stdDeviation="8" flood-color="#D4C5FF" flood-opacity="0.4"/>
    </filter>
    <filter id="glow">
      <feGaussianBlur stdDeviation="8" result="blur"/>
      <feMerge><feMergeNode in="blur"/><feMergeNode in="SourceGraphic"/></feMerge>
    </filter>
  </defs>

  <!-- 背景 -->
  <rect width="1200" height="420" fill="url(#bgGrad)"/>

  <!-- 装饰圆形光晕 -->
  <circle cx="120" cy="80" r="120" fill="#E8D5FF" opacity="0.3"/>
  <circle cx="1080" cy="340" r="150" fill="#FFB7C5" opacity="0.2"/>
  <circle cx="600" cy="210" r="200" fill="#D4F5FF" opacity="0.15"/>

  <!-- 顶部小装饰圆点 -->
  <circle cx="200" cy="40" r="6" fill="#FFB7C5"/>
  <circle cx="240" cy="25" r="4" fill="#7c6df0" opacity="0.5"/>
  <circle cx="960" cy="35" r="5" fill="#22d3ee" opacity="0.7"/>
  <circle cx="1000" cy="52" r="7" fill="#FFB7C5"/>

  <!-- 闪光装饰 -->
<g>
  <line x1="50" y1="138" x2="50" y2="162" stroke="#B9A0FF" stroke-width="1.5" stroke-linecap="round"/>
  <line x1="38" y1="150" x2="62" y2="150" stroke="#B9A0FF" stroke-width="1.5" stroke-linecap="round"/>
  <line x1="41.6" y1="141.6" x2="58.4" y2="158.4" stroke="#B9A0FF" stroke-width="1" stroke-linecap="round"/>
  <line x1="58.4" y1="141.6" x2="41.6" y2="158.4" stroke="#B9A0FF" stroke-width="1" stroke-linecap="round"/>
</g>
<g>
  <line x1="150" y1="342" x2="150" y2="358" stroke="#FFB7C5" stroke-width="1.5" stroke-linecap="round"/>
  <line x1="142" y1="350" x2="158" y2="350" stroke="#FFB7C5" stroke-width="1.5" stroke-linecap="round"/>
  <line x1="144.4" y1="344.4" x2="155.6" y2="355.6" stroke="#FFB7C5" stroke-width="1" stroke-linecap="round"/>
  <line x1="155.6" y1="344.4" x2="144.4" y2="355.6" stroke="#FFB7C5" stroke-width="1" stroke-linecap="round"/>
</g>
<g>
  <line x1="1050" y1="90" x2="1050" y2="110" stroke="#22d3ee" stroke-width="1.5" stroke-linecap="round"/>
  <line x1="1040" y1="100" x2="1060" y2="100" stroke="#22d3ee" stroke-width="1.5" stroke-linecap="round"/>
  <line x1="1043.0" y1="93.0" x2="1057.0" y2="107.0" stroke="#22d3ee" stroke-width="1" stroke-linecap="round"/>
  <line x1="1057.0" y1="93.0" x2="1043.0" y2="107.0" stroke="#22d3ee" stroke-width="1" stroke-linecap="round"/>
</g>
<g>
  <line x1="1150" y1="288" x2="1150" y2="312" stroke="#FFB7C5" stroke-width="1.5" stroke-linecap="round"/>
  <line x1="1138" y1="300" x2="1162" y2="300" stroke="#FFB7C5" stroke-width="1.5" stroke-linecap="round"/>
  <line x1="1141.6" y1="291.6" x2="1158.4" y2="308.4" stroke="#FFB7C5" stroke-width="1" stroke-linecap="round"/>
  <line x1="1158.4" y1="291.6" x2="1141.6" y2="308.4" stroke="#FFB7C5" stroke-width="1" stroke-linecap="round"/>
</g>
<g>
  <line x1="300" y1="23" x2="300" y2="37" stroke="#7c6df0" stroke-width="1.5" stroke-linecap="round"/>
  <line x1="293" y1="30" x2="307" y2="30" stroke="#7c6df0" stroke-width="1.5" stroke-linecap="round"/>
  <line x1="295.1" y1="25.1" x2="304.9" y2="34.9" stroke="#7c6df0" stroke-width="1" stroke-linecap="round"/>
  <line x1="304.9" y1="25.1" x2="295.1" y2="34.9" stroke="#7c6df0" stroke-width="1" stroke-linecap="round"/>
</g>
<g>
  <line x1="900" y1="382" x2="900" y2="398" stroke="#4ade80" stroke-width="1.5" stroke-linecap="round"/>
  <line x1="892" y1="390" x2="908" y2="390" stroke="#4ade80" stroke-width="1.5" stroke-linecap="round"/>
  <line x1="894.4" y1="384.4" x2="905.6" y2="395.6" stroke="#4ade80" stroke-width="1" stroke-linecap="round"/>
  <line x1="905.6" y1="384.4" x2="894.4" y2="395.6" stroke="#4ade80" stroke-width="1" stroke-linecap="round"/>
</g>
<g>
  <line x1="680" y1="54" x2="680" y2="66" stroke="#FFD700" stroke-width="1.5" stroke-linecap="round"/>
  <line x1="674" y1="60" x2="686" y2="60" stroke="#FFD700" stroke-width="1.5" stroke-linecap="round"/>
  <line x1="675.8" y1="55.8" x2="684.2" y2="64.2" stroke="#FFD700" stroke-width="1" stroke-linecap="round"/>
  <line x1="684.2" y1="55.8" x2="675.8" y2="64.2" stroke="#FFD700" stroke-width="1" stroke-linecap="round"/>
</g>

  <!-- 星星 -->
<polygon points="100.0,186.0 96.7,195.5 86.7,195.7 94.7,201.7 91.8,211.3 100.0,205.6 108.2,211.3 105.3,201.7 113.3,195.7 103.3,195.5" fill="#FFD700" opacity="0.85"/>
<polygon points="1100.0,168.0 1097.2,176.1 1088.6,176.3 1095.4,181.5 1092.9,189.7 1100.0,184.8 1107.1,189.7 1104.6,181.5 1111.4,176.3 1102.8,176.1" fill="#FFD700" opacity="0.85"/>
<polygon points="50.0,290.0 47.6,296.8 40.5,296.9 46.2,301.2 44.1,308.1 50.0,304.0 55.9,308.1 53.8,301.2 59.5,296.9 52.4,296.8" fill="#FFB7C5" opacity="0.85"/>
<polygon points="380.0,371.0 377.9,377.1 371.4,377.2 376.6,381.1 374.7,387.3 380.0,383.6 385.3,387.3 383.4,381.1 388.6,377.2 382.1,377.1" fill="#7c6df0" opacity="0.85"/>
<polygon points="820.0,365.0 817.6,371.8 810.5,371.9 816.2,376.2 814.1,383.1 820.0,379.0 825.9,383.1 823.8,376.2 829.5,371.9 822.4,371.8" fill="#22d3ee" opacity="0.85"/>
<polygon points="1160.0,72.0 1158.1,77.4 1152.4,77.5 1157.0,81.0 1155.3,86.5 1160.0,83.2 1164.7,86.5 1163.0,81.0 1167.6,77.5 1161.9,77.4" fill="#4ade80" opacity="0.85"/>

  <!-- 浮动代码符号 -->
  <text x="60" y="260" font-size="22" fill="#7c6df0" opacity="0.3" font-family="monospace">&lt;/&gt;</text>
  <text x="70" y="180" font-size="18" fill="#22d3ee" opacity="0.25" font-family="monospace">{}</text>
  <text x="1080" y="220" font-size="22" fill="#7c6df0" opacity="0.3" font-family="monospace">☕</text>
  <text x="1100" y="270" font-size="18" fill="#4ade80" opacity="0.3" font-family="monospace">🐍</text>
  <text x="45" y="370" font-size="20" fill="#FFB7C5" opacity="0.35" font-family="monospace">✦</text>
  <text x="1130" y="380" font-size="16" fill="#22d3ee" opacity="0.3" font-family="monospace">⚙</text>

  <!-- 左侧角色 Chiikawa（拿着书）-->
  <g filter="url(#shadow)">
<ellipse cx="200" cy="231.0" rx="30.800000000000004" ry="35.2" fill="#FFFFFF" stroke="#D4C5FF" stroke-width="1.6500000000000001"/>
<ellipse cx="178.0" cy="189.2" rx="11.0" ry="14.3" fill="#FFFFFF" stroke="#D4C5FF" stroke-width="1.6500000000000001"/>
<ellipse cx="178.0" cy="189.2" rx="6.6000000000000005" ry="8.8" fill="#FFB7C5"/>
<ellipse cx="222.0" cy="189.2" rx="11.0" ry="14.3" fill="#FFFFFF" stroke="#D4C5FF" stroke-width="1.6500000000000001"/>
<ellipse cx="222.0" cy="189.2" rx="6.6000000000000005" ry="8.8" fill="#FFB7C5"/>
<circle cx="200" cy="220" r="28.6" fill="#FFFFFF" stroke="#D4C5FF" stroke-width="1.6500000000000001"/>
<ellipse cx="190.1" cy="215.6" rx="7.700000000000001" ry="8.8" fill="#1E1040"/>
<ellipse cx="209.9" cy="215.6" rx="7.700000000000001" ry="8.8" fill="#1E1040"/>
<circle cx="193.4" cy="212.29999999999998" r="2.75" fill="white"/>
<circle cx="213.2" cy="212.29999999999998" r="2.75" fill="white"/>
<ellipse cx="180.2" cy="226.6" rx="9.9" ry="5.5" fill="#FFB7C5" opacity="0.65"/>
<ellipse cx="219.8" cy="226.6" rx="9.9" ry="5.5" fill="#FFB7C5" opacity="0.65"/>
<path d="M193.4 231.0 Q200 237.6 206.6 231.0" stroke="#1E1040" stroke-width="1.6500000000000001" fill="none" stroke-linecap="round"/>
<ellipse cx="167.0" cy="244.2" rx="9.9" ry="18.700000000000003" fill="#FFFFFF" stroke="#D4C5FF" stroke-width="1.6500000000000001" transform="rotate(-25 167.0 244.2)"/>
<ellipse cx="233.0" cy="244.2" rx="9.9" ry="18.700000000000003" fill="#FFFFFF" stroke="#D4C5FF" stroke-width="1.6500000000000001" transform="rotate(25 233.0 244.2)"/>
<ellipse cx="186.8" cy="268.4" rx="11.0" ry="8.8" fill="#FFFFFF" stroke="#D4C5FF" stroke-width="1.6500000000000001"/>
<ellipse cx="213.2" cy="268.4" rx="11.0" ry="8.8" fill="#FFFFFF" stroke="#D4C5FF" stroke-width="1.6500000000000001"/>
  </g>
<g>
  <rect x="186.8" y="278.5" width="26.4" height="33.0" rx="3.3" fill="#7c6df0" stroke="white" stroke-width="1"/>
  <line x1="200" y1="278.5" x2="200" y2="311.5" stroke="white" stroke-width="1.6500000000000001"/>
  <line x1="186.8" y1="290.6" x2="213.2" y2="290.6" stroke="white" stroke-width="1.1" opacity="0.5"/>
  <line x1="186.8" y1="299.4" x2="213.2" y2="299.4" stroke="white" stroke-width="1.1" opacity="0.5"/>
</g>

  <!-- 右侧角色 Hachiware（拿着笔记本）-->
  <g filter="url(#shadow)">
<ellipse cx="1000" cy="231.0" rx="30.800000000000004" ry="35.2" fill="#FFFFFF" stroke="#D4C5FF" stroke-width="1.6500000000000001"/>
<ellipse cx="978.0" cy="189.2" rx="11.0" ry="14.3" fill="#FFFFFF" stroke="#D4C5FF" stroke-width="1.6500000000000001"/>
<ellipse cx="978.0" cy="189.2" rx="6.6000000000000005" ry="8.8" fill="#FFB7C5"/>
<ellipse cx="1022.0" cy="189.2" rx="11.0" ry="14.3" fill="#FFFFFF" stroke="#D4C5FF" stroke-width="1.6500000000000001"/>
<ellipse cx="1022.0" cy="189.2" rx="6.6000000000000005" ry="8.8" fill="#FFB7C5"/>
<circle cx="1000" cy="220" r="28.6" fill="#FFFFFF" stroke="#D4C5FF" stroke-width="1.6500000000000001"/>
<ellipse cx="990.1" cy="215.6" rx="7.700000000000001" ry="8.8" fill="#1E1040"/>
<ellipse cx="1009.9" cy="215.6" rx="7.700000000000001" ry="8.8" fill="#1E1040"/>
<circle cx="993.4" cy="212.29999999999998" r="2.75" fill="white"/>
<circle cx="1013.2" cy="212.29999999999998" r="2.75" fill="white"/>
<ellipse cx="980.2" cy="226.6" rx="9.9" ry="5.5" fill="#FFB7C5" opacity="0.65"/>
<ellipse cx="1019.8" cy="226.6" rx="9.9" ry="5.5" fill="#FFB7C5" opacity="0.65"/>
<path d="M993.4 231.0 Q1000 237.6 1006.6 231.0" stroke="#1E1040" stroke-width="1.6500000000000001" fill="none" stroke-linecap="round"/>
<ellipse cx="967.0" cy="244.2" rx="9.9" ry="18.700000000000003" fill="#FFFFFF" stroke="#D4C5FF" stroke-width="1.6500000000000001" transform="rotate(-25 967.0 244.2)"/>
<ellipse cx="1033.0" cy="244.2" rx="9.9" ry="18.700000000000003" fill="#FFFFFF" stroke="#D4C5FF" stroke-width="1.6500000000000001" transform="rotate(25 1033.0 244.2)"/>
<ellipse cx="986.8" cy="268.4" rx="11.0" ry="8.8" fill="#FFFFFF" stroke="#D4C5FF" stroke-width="1.6500000000000001"/>
<ellipse cx="1013.2" cy="268.4" rx="11.0" ry="8.8" fill="#FFFFFF" stroke="#D4C5FF" stroke-width="1.6500000000000001"/>
<path d="M991.2 191.4 Q1000 198.0 1008.8 191.4" stroke="#7FB3FF" stroke-width="4.4" fill="none" stroke-linecap="round"/>
  </g>
<g>
  <rect x="983.5" y="270.8" width="33.0" height="24.2" rx="3.3" fill="#4ade80" stroke="white" stroke-width="1"/>
  <rect x="988.5" y="275.6" width="23.1" height="14.5" rx="2" fill="white" opacity="0.3"/>
  <rect x="981.9" y="295.0" width="36.3" height="4.4" rx="2" fill="#4ade80" stroke="white" stroke-width="1"/>
</g>

  <!-- 右下角 Usagi（小一点，挥手）-->
  <g filter="url(#shadow)" transform="scale(0.7) translate(780, 280)">
<ellipse cx="688.1" cy="162.6" rx="7.6499999999999995" ry="20.4" fill="white" stroke="#D4C5FF" stroke-width="1.275"/>
<ellipse cx="688.1" cy="162.6" rx="4.25" ry="15.299999999999999" fill="#FFB7C5"/>
<ellipse cx="711.9" cy="162.6" rx="7.6499999999999995" ry="20.4" fill="white" stroke="#D4C5FF" stroke-width="1.275"/>
<ellipse cx="711.9" cy="162.6" rx="4.25" ry="15.299999999999999" fill="#FFB7C5"/>
<ellipse cx="700" cy="208.5" rx="23.8" ry="27.2" fill="white" stroke="#D4C5FF" stroke-width="1.275"/>
<circle cx="700" cy="200" r="22.099999999999998" fill="white" stroke="#D4C5FF" stroke-width="1.275"/>
<ellipse cx="692.35" cy="196.6" rx="5.95" ry="6.8" fill="#1E1040"/>
<ellipse cx="707.65" cy="196.6" rx="5.95" ry="6.8" fill="#1E1040"/>
<circle cx="694.9" cy="194.04999999999998" r="2.125" fill="white"/>
<circle cx="710.2" cy="194.04999999999998" r="2.125" fill="white"/>
<ellipse cx="684.7" cy="205.1" rx="7.6499999999999995" ry="4.25" fill="#FFB7C5" opacity="0.65"/>
<ellipse cx="715.3" cy="205.1" rx="7.6499999999999995" ry="4.25" fill="#FFB7C5" opacity="0.65"/>
<path d="M694.9 208.5 Q700 213.6 705.1 208.5" stroke="#1E1040" stroke-width="1.275" fill="none" stroke-linecap="round"/>
<ellipse cx="674.5" cy="218.7" rx="7.6499999999999995" ry="14.45" fill="white" stroke="#D4C5FF" stroke-width="1.275" transform="rotate(-25 674.5 218.7)"/>
<ellipse cx="725.5" cy="218.7" rx="7.6499999999999995" ry="14.45" fill="white" stroke="#D4C5FF" stroke-width="1.275" transform="rotate(25 725.5 218.7)"/>
<ellipse cx="689.8" cy="237.4" rx="8.5" ry="6.8" fill="white" stroke="#D4C5FF" stroke-width="1.275"/>
<ellipse cx="710.2" cy="237.4" rx="8.5" ry="6.8" fill="white" stroke="#D4C5FF" stroke-width="1.275"/>
  </g>

  <!-- 主标题 -->
  <text x="600" y="160" text-anchor="middle" font-size="78" font-weight="900" fill="url(#titleGrad)" filter="url(#shadow)" letter-spacing="-2">CodeNote</text>

  <!-- 副标题 -->
  <text x="600" y="205" text-anchor="middle" font-size="22" fill="#7c6df0" font-weight="600" opacity="0.9">编程知识笔记</text>

  <!-- 标签栏 -->
  <g transform="translate(600, 250)" text-anchor="middle">
    <!-- 笔记数量 -->
    <rect x="-300" y="0" width="130" height="34" rx="17" fill="#7c6df0" opacity="0.15" stroke="#7c6df0" stroke-width="1"/>
    <text x="-235" y="22" font-size="14" fill="#7c6df0" font-weight="600">📖 22 篇笔记</text>
    <!-- 更新月数 -->
    <rect x="-155" y="0" width="150" height="34" rx="17" fill="#22d3ee" opacity="0.12" stroke="#22d3ee" stroke-width="1"/>
    <text x="-80" y="22" font-size="14" fill="#22d3ee" font-weight="600">🗓 7 个月更新</text>
    <!-- 领域数 -->
    <rect x="10" y="0" width="140" height="34" rx="17" fill="#4ade80" opacity="0.12" stroke="#4ade80" stroke-width="1"/>
    <text x="80" y="22" font-size="14" fill="#4ade80" font-weight="600">🌐 8 个技术领域</text>
    <!-- 免费 -->
    <rect x="165" y="0" width="125" height="34" rx="17" fill="#FFB7C5" opacity="0.2" stroke="#FFB7C5" stroke-width="1"/>
    <text x="228" y="22" font-size="14" fill="#e8459a" font-weight="600">❤ 100% 免费</text>
  </g>

  <!-- 底部提示文字 -->
  <text x="600" y="370" text-anchor="middle" font-size="15" fill="#9B8EC4" opacity="0.8">🌸 一份持续生长的开源编程知识库 · 从编译原理到 AI 开发 🌸</text>

  <!-- 圆角边框装饰 -->
  <rect x="10" y="10" width="1180" height="400" rx="20" fill="none" stroke="#E8D5FF" stroke-width="1.5" opacity="0.7"/>
</svg>