<svg xmlns="http://www.w3.org/2000/svg" width="1100" height="400" viewBox="0 0 1100 400" font-family="'Helvetica Neue',Arial,sans-serif">
  <defs>
    <linearGradient id="bg3" x1="0" y1="0" x2="1" y2="0">
      <stop offset="0%" stop-color="#FFF8E7"/>
      <stop offset="50%" stop-color="#F5E9FF"/>
      <stop offset="100%" stop-color="#FFE4F0"/>
    </linearGradient>
    <linearGradient id="road" x1="0" y1="0" x2="1" y2="0">
      <stop offset="0%" stop-color="#D4C5FF"/>
      <stop offset="100%" stop-color="#A0E8FF"/>
    </linearGradient>
    <filter id="sh3">
      <feDropShadow dx="0" dy="3" stdDeviation="5" flood-color="#C8B4FF" flood-opacity="0.35"/>
    </filter>
    <marker id="arrow" viewBox="0 0 10 10" refX="9" refY="5" markerWidth="6" markerHeight="6" orient="auto">
      <path d="M 0 0 L 10 5 L 0 10 z" fill="#7c6df0" opacity="0.7"/>
    </marker>
  </defs>
  <rect width="1100" height="400" fill="url(#bg3)"/>
  
  <!-- 标题 -->
  <text x="550" y="44" text-anchor="middle" font-size="26" font-weight="800" fill="#7c6df0">学习旅程时间线</text>
  <text x="550" y="67" text-anchor="middle" font-size="13" fill="#9B8EC4">2025.10 → 2026.04 · 持续记录每一步成长 ✦</text>

  <!-- 主道路 -->
  <path d="M 60 230 C 200 230 200 230 1040 230" stroke="url(#road)" stroke-width="12" fill="none" stroke-linecap="round" opacity="0.4"/>
  <!-- 道路虚线 -->
  <path d="M 60 230 L 1040 230" stroke="white" stroke-width="2" fill="none" stroke-dasharray="18 12" opacity="0.7"/>
  <!-- 箭头终点 -->
  <path d="M 1020 230 L 1060 230" stroke="#7c6df0" stroke-width="3" fill="none" marker-end="url(#arrow)" opacity="0.8"/>

  <line x1="80" y1="140" x2="80" y2="222" stroke="#7c6df0" stroke-width="2" stroke-dasharray="5 3" opacity="0.6"/>
  <circle cx="80" cy="230" r="10" fill="#7c6df0" opacity="0.85" filter="url(#sh3)"/>
  <circle cx="80" cy="230" r="5" fill="white"/>
  <g filter="url(#sh3)">
    <rect x="28" y="70" width="104" height="66" rx="12" fill="white" stroke="#7c6df0" stroke-width="1.5"/>
  </g>
  <text x="80" y="88" text-anchor="middle" font-size="13" font-weight="700" fill="#7c6df0">25.10</text>
  <text x="80" y="106" text-anchor="middle" font-size="11" fill="#888">3 篇笔记</text>
  <text x="80" y="122" text-anchor="middle" font-size="9.5" fill="#AAA">ANTLR4 · Markdown</text>
  <line x1="237" y1="238" x2="237" y2="320" stroke="#FFB7C5" stroke-width="2" stroke-dasharray="5 3" opacity="0.6"/>
  <circle cx="237" cy="230" r="10" fill="#FFB7C5" opacity="0.85" filter="url(#sh3)"/>
  <circle cx="237" cy="230" r="5" fill="white"/>
  <g filter="url(#sh3)">
    <rect x="185" y="250" width="104" height="66" rx="12" fill="white" stroke="#FFB7C5" stroke-width="1.5"/>
  </g>
  <text x="237" y="268" text-anchor="middle" font-size="13" font-weight="700" fill="#FFB7C5">25.11</text>
  <text x="237" y="286" text-anchor="middle" font-size="11" fill="#888">2 篇笔记</text>
  <text x="237" y="302" text-anchor="middle" font-size="9.5" fill="#AAA">Lambda Calculus</text>
  <text x="237" y="314" text-anchor="middle" font-size="9.5" fill="#AAA">开源项目</text>
  <line x1="393" y1="140" x2="393" y2="222" stroke="#4ade80" stroke-width="2" stroke-dasharray="5 3" opacity="0.6"/>
  <circle cx="393" cy="230" r="10" fill="#4ade80" opacity="0.85" filter="url(#sh3)"/>
  <circle cx="393" cy="230" r="5" fill="white"/>
  <g filter="url(#sh3)">
    <rect x="341" y="70" width="104" height="66" rx="12" fill="white" stroke="#4ade80" stroke-width="1.5"/>
  </g>
  <text x="393" y="88" text-anchor="middle" font-size="13" font-weight="700" fill="#4ade80">25.12</text>
  <text x="393" y="106" text-anchor="middle" font-size="11" fill="#888">3 篇笔记</text>
  <text x="393" y="122" text-anchor="middle" font-size="9.5" fill="#AAA">AI导论</text>
  <text x="393" y="134" text-anchor="middle" font-size="9.5" fill="#AAA">操作系统</text>
  <line x1="550" y1="238" x2="550" y2="320" stroke="#22d3ee" stroke-width="2" stroke-dasharray="5 3" opacity="0.6"/>
  <circle cx="550" cy="230" r="10" fill="#22d3ee" opacity="0.85" filter="url(#sh3)"/>
  <circle cx="550" cy="230" r="5" fill="white"/>
  <g filter="url(#sh3)">
    <rect x="498" y="250" width="104" height="66" rx="12" fill="white" stroke="#22d3ee" stroke-width="1.5"/>
  </g>
  <text x="550" y="268" text-anchor="middle" font-size="13" font-weight="700" fill="#22d3ee">26.01</text>
  <text x="550" y="286" text-anchor="middle" font-size="11" fill="#888">5 篇笔记</text>
  <text x="550" y="302" text-anchor="middle" font-size="9.5" fill="#AAA">Java · Python</text>
  <text x="550" y="314" text-anchor="middle" font-size="9.5" fill="#AAA">数据库 · 网络</text>
  <line x1="707" y1="140" x2="707" y2="222" stroke="#FFD700" stroke-width="2" stroke-dasharray="5 3" opacity="0.6"/>
  <circle cx="707" cy="230" r="10" fill="#FFD700" opacity="0.85" filter="url(#sh3)"/>
  <circle cx="707" cy="230" r="5" fill="white"/>
  <g filter="url(#sh3)">
    <rect x="655" y="70" width="104" height="66" rx="12" fill="white" stroke="#FFD700" stroke-width="1.5"/>
  </g>
  <text x="707" y="88" text-anchor="middle" font-size="13" font-weight="700" fill="#FFD700">26.02</text>
  <text x="707" y="106" text-anchor="middle" font-size="11" fill="#888">2 篇笔记</text>
  <text x="707" y="122" text-anchor="middle" font-size="9.5" fill="#AAA">Python基础</text>
  <text x="707" y="134" text-anchor="middle" font-size="9.5" fill="#AAA">Redis</text>
  <line x1="863" y1="238" x2="863" y2="320" stroke="#B9A0FF" stroke-width="2" stroke-dasharray="5 3" opacity="0.6"/>
  <circle cx="863" cy="230" r="10" fill="#B9A0FF" opacity="0.85" filter="url(#sh3)"/>
  <circle cx="863" cy="230" r="5" fill="white"/>
  <g filter="url(#sh3)">
    <rect x="811" y="250" width="104" height="66" rx="12" fill="white" stroke="#B9A0FF" stroke-width="1.5"/>
  </g>
  <text x="863" y="268" text-anchor="middle" font-size="13" font-weight="700" fill="#B9A0FF">26.03</text>
  <text x="863" y="286" text-anchor="middle" font-size="11" fill="#888">6 篇笔记</text>
  <text x="863" y="302" text-anchor="middle" font-size="9.5" fill="#AAA">C++ · Java</text>
  <text x="863" y="314" text-anchor="middle" font-size="9.5" fill="#AAA">面试总结</text>
  <line x1="1020" y1="140" x2="1020" y2="222" stroke="#FFB7C5" stroke-width="2" stroke-dasharray="5 3" opacity="0.6"/>
  <circle cx="1020" cy="230" r="10" fill="#FFB7C5" opacity="0.85" filter="url(#sh3)"/>
  <circle cx="1020" cy="230" r="5" fill="white"/>
  <g filter="url(#sh3)">
    <rect x="968" y="70" width="104" height="66" rx="12" fill="white" stroke="#FFB7C5" stroke-width="1.5"/>
  </g>
  <text x="1020" y="88" text-anchor="middle" font-size="13" font-weight="700" fill="#FFB7C5">26.04</text>
  <text x="1020" y="106" text-anchor="middle" font-size="11" fill="#888">1+ 篇笔记</text>
  <text x="1020" y="122" text-anchor="middle" font-size="9.5" fill="#AAA">Java OOP</text>
  <text x="1020" y="134" text-anchor="middle" font-size="9.5" fill="#AAA">持续中…</text>
  <g filter="url(#sh3)">
<ellipse cx="160" cy="190.5" rx="15.400000000000002" ry="17.6" fill="#FFFFFF" stroke="#D4C5FF" stroke-width="0.8250000000000001"/>
<ellipse cx="149.0" cy="169.6" rx="5.5" ry="7.15" fill="#FFFFFF" stroke="#D4C5FF" stroke-width="0.8250000000000001"/>
<ellipse cx="149.0" cy="169.6" rx="3.3000000000000003" ry="4.4" fill="#FFB7C5"/>
<ellipse cx="171.0" cy="169.6" rx="5.5" ry="7.15" fill="#FFFFFF" stroke="#D4C5FF" stroke-width="0.8250000000000001"/>
<ellipse cx="171.0" cy="169.6" rx="3.3000000000000003" ry="4.4" fill="#FFB7C5"/>
<circle cx="160" cy="185" r="14.3" fill="#FFFFFF" stroke="#D4C5FF" stroke-width="0.8250000000000001"/>
<ellipse cx="155.05" cy="182.8" rx="3.8500000000000005" ry="4.4" fill="#1E1040"/>
<ellipse cx="164.95" cy="182.8" rx="3.8500000000000005" ry="4.4" fill="#1E1040"/>
<circle cx="156.7" cy="181.15" r="1.375" fill="white"/>
<circle cx="166.6" cy="181.15" r="1.375" fill="white"/>
<ellipse cx="150.1" cy="188.3" rx="4.95" ry="2.75" fill="#FFB7C5" opacity="0.65"/>
<ellipse cx="169.9" cy="188.3" rx="4.95" ry="2.75" fill="#FFB7C5" opacity="0.65"/>
<path d="M156.7 190.5 Q160 193.8 163.3 190.5" stroke="#1E1040" stroke-width="0.8250000000000001" fill="none" stroke-linecap="round"/>
<ellipse cx="143.5" cy="197.1" rx="4.95" ry="9.350000000000001" fill="#FFFFFF" stroke="#D4C5FF" stroke-width="0.8250000000000001" transform="rotate(-25 143.5 197.1)"/>
<ellipse cx="176.5" cy="197.1" rx="4.95" ry="9.350000000000001" fill="#FFFFFF" stroke="#D4C5FF" stroke-width="0.8250000000000001" transform="rotate(25 176.5 197.1)"/>
<ellipse cx="153.4" cy="209.2" rx="5.5" ry="4.4" fill="#FFFFFF" stroke="#D4C5FF" stroke-width="0.8250000000000001"/>
<ellipse cx="166.6" cy="209.2" rx="5.5" ry="4.4" fill="#FFFFFF" stroke="#D4C5FF" stroke-width="0.8250000000000001"/>
  </g>
  <g filter="url(#sh3)">
<ellipse cx="550" cy="190.5" rx="15.400000000000002" ry="17.6" fill="#FFFFFF" stroke="#D4C5FF" stroke-width="0.8250000000000001"/>
<ellipse cx="539.0" cy="169.6" rx="5.5" ry="7.15" fill="#FFFFFF" stroke="#D4C5FF" stroke-width="0.8250000000000001"/>
<ellipse cx="539.0" cy="169.6" rx="3.3000000000000003" ry="4.4" fill="#FFB7C5"/>
<ellipse cx="561.0" cy="169.6" rx="5.5" ry="7.15" fill="#FFFFFF" stroke="#D4C5FF" stroke-width="0.8250000000000001"/>
<ellipse cx="561.0" cy="169.6" rx="3.3000000000000003" ry="4.4" fill="#FFB7C5"/>
<circle cx="550" cy="185" r="14.3" fill="#FFFFFF" stroke="#D4C5FF" stroke-width="0.8250000000000001"/>
<ellipse cx="545.05" cy="182.8" rx="3.8500000000000005" ry="4.4" fill="#1E1040"/>
<ellipse cx="554.95" cy="182.8" rx="3.8500000000000005" ry="4.4" fill="#1E1040"/>
<circle cx="546.7" cy="181.15" r="1.375" fill="white"/>
<circle cx="556.6" cy="181.15" r="1.375" fill="white"/>
<ellipse cx="540.1" cy="188.3" rx="4.95" ry="2.75" fill="#FFB7C5" opacity="0.65"/>
<ellipse cx="559.9" cy="188.3" rx="4.95" ry="2.75" fill="#FFB7C5" opacity="0.65"/>
<path d="M546.7 190.5 Q550 193.8 553.3 190.5" stroke="#1E1040" stroke-width="0.8250000000000001" fill="none" stroke-linecap="round"/>
<ellipse cx="533.5" cy="197.1" rx="4.95" ry="9.350000000000001" fill="#FFFFFF" stroke="#D4C5FF" stroke-width="0.8250000000000001" transform="rotate(-25 533.5 197.1)"/>
<ellipse cx="566.5" cy="197.1" rx="4.95" ry="9.350000000000001" fill="#FFFFFF" stroke="#D4C5FF" stroke-width="0.8250000000000001" transform="rotate(25 566.5 197.1)"/>
<ellipse cx="543.4" cy="209.2" rx="5.5" ry="4.4" fill="#FFFFFF" stroke="#D4C5FF" stroke-width="0.8250000000000001"/>
<ellipse cx="556.6" cy="209.2" rx="5.5" ry="4.4" fill="#FFFFFF" stroke="#D4C5FF" stroke-width="0.8250000000000001"/>
<path d="M545.6 170.7 Q550 174.0 554.4 170.7" stroke="#7FB3FF" stroke-width="2.2" fill="none" stroke-linecap="round"/>
  </g>
  <g filter="url(#sh3)">
<ellipse cx="933.0" cy="163.0" rx="4.5" ry="12.0" fill="white" stroke="#D4C5FF" stroke-width="0.75"/>
<ellipse cx="933.0" cy="163.0" rx="2.5" ry="9.0" fill="#FFB7C5"/>
<ellipse cx="947.0" cy="163.0" rx="4.5" ry="12.0" fill="white" stroke="#D4C5FF" stroke-width="0.75"/>
<ellipse cx="947.0" cy="163.0" rx="2.5" ry="9.0" fill="#FFB7C5"/>
<ellipse cx="940" cy="190.0" rx="14.0" ry="16.0" fill="white" stroke="#D4C5FF" stroke-width="0.75"/>
<circle cx="940" cy="185" r="13.0" fill="white" stroke="#D4C5FF" stroke-width="0.75"/>
<ellipse cx="935.5" cy="183.0" rx="3.5" ry="4.0" fill="#1E1040"/>
<ellipse cx="944.5" cy="183.0" rx="3.5" ry="4.0" fill="#1E1040"/>
<circle cx="937.0" cy="181.5" r="1.25" fill="white"/>
<circle cx="946.0" cy="181.5" r="1.25" fill="white"/>
<ellipse cx="931.0" cy="188.0" rx="4.5" ry="2.5" fill="#FFB7C5" opacity="0.65"/>
<ellipse cx="949.0" cy="188.0" rx="4.5" ry="2.5" fill="#FFB7C5" opacity="0.65"/>
<path d="M937.0 190.0 Q940 193.0 943.0 190.0" stroke="#1E1040" stroke-width="0.75" fill="none" stroke-linecap="round"/>
<ellipse cx="925.0" cy="196.0" rx="4.5" ry="8.5" fill="white" stroke="#D4C5FF" stroke-width="0.75" transform="rotate(-25 925.0 196.0)"/>
<ellipse cx="955.0" cy="196.0" rx="4.5" ry="8.5" fill="white" stroke="#D4C5FF" stroke-width="0.75" transform="rotate(25 955.0 196.0)"/>
<ellipse cx="934.0" cy="207.0" rx="5.0" ry="4.0" fill="white" stroke="#D4C5FF" stroke-width="0.75"/>
<ellipse cx="946.0" cy="207.0" rx="5.0" ry="4.0" fill="white" stroke="#D4C5FF" stroke-width="0.75"/>
  </g>

  <polygon points="30.0,50.0 27.6,56.8 20.5,56.9 26.2,61.2 24.1,68.1 30.0,64.0 35.9,68.1 33.8,61.2 39.5,56.9 32.4,56.8" fill="#FFD700" opacity="0.85"/>
  <polygon points="1070.0,50.0 1067.6,56.8 1060.5,56.9 1066.2,61.2 1064.1,68.1 1070.0,64.0 1075.9,68.1 1073.8,61.2 1079.5,56.9 1072.4,56.8" fill="#FFB7C5" opacity="0.85"/>
  <polygon points="550.0,376.0 547.9,382.1 541.4,382.2 546.6,386.1 544.7,392.3 550.0,388.6 555.3,392.3 553.4,386.1 558.6,382.2 552.1,382.1" fill="#7c6df0" opacity="0.85"/>
  <g>
  <line x1="25" y1="342" x2="25" y2="358" stroke="#7c6df0" stroke-width="1.5" stroke-linecap="round"/>
  <line x1="17" y1="350" x2="33" y2="350" stroke="#7c6df0" stroke-width="1.5" stroke-linecap="round"/>
  <line x1="19.4" y1="344.4" x2="30.6" y2="355.6" stroke="#7c6df0" stroke-width="1" stroke-linecap="round"/>
  <line x1="30.6" y1="344.4" x2="19.4" y2="355.6" stroke="#7c6df0" stroke-width="1" stroke-linecap="round"/>
</g>
  <g>
  <line x1="1075" y1="332" x2="1075" y2="348" stroke="#22d3ee" stroke-width="1.5" stroke-linecap="round"/>
  <line x1="1067" y1="340" x2="1083" y2="340" stroke="#22d3ee" stroke-width="1.5" stroke-linecap="round"/>
  <line x1="1069.4" y1="334.4" x2="1080.6" y2="345.6" stroke="#22d3ee" stroke-width="1" stroke-linecap="round"/>
  <line x1="1080.6" y1="334.4" x2="1069.4" y2="345.6" stroke="#22d3ee" stroke-width="1" stroke-linecap="round"/>
</g>
  <text x="550" y="385" text-anchor="middle" font-size="12" fill="#9B8EC4" opacity="0.8">🌸 22 篇笔记 · 7 个月 · 8 个领域 🌸</text>
  <rect x="8" y="8" width="1084" height="384" rx="16" fill="none" stroke="#E8D5FF" stroke-width="1.5" opacity="0.7"/>
</svg>